<?xml version="1.0" encoding="utf-8"?>
<!-- Generator: Adobe Illustrator 18.1.1, SVG Export Plug-In . SVG Version: 6.00 Build 0)  -->
<svg version="1.1" id="Layer_1" xmlns="http://www.w3.org/2000/svg" xmlns:xlink="http://www.w3.org/1999/xlink" x="0px" y="0px"
	 viewBox="0 0 54 52" enable-background="new 0 0 54 52" xml:space="preserve">
<g>
	<path fill="#FFFFFF" d="M2.9,31.5L2.9,31.5c-1.3,0-2.3-1-2.3-2.3V21c0-1.3,1-2.3,2.3-2.3h0c1.3,0,2.3,1,2.3,2.3v8.2
		C5.2,30.5,4.1,31.5,2.9,31.5z"/>
	<path fill="#FFFFFF" d="M10.9,35.5L10.9,35.5c-1.3,0-2.3-1-2.3-2.3V17c0-1.3,1-2.3,2.3-2.3h0c1.3,0,2.3,1,2.3,2.3v16.2
		C13.2,34.5,12.2,35.5,10.9,35.5z"/>
	<path fill="#FFFFFF" d="M19,41.6L19,41.6c-1.3,0-2.3-1-2.3-2.3V13c0-1.3,1-2.3,2.3-2.3h0c1.3,0,2.3,1,2.3,2.3v26.3
		C21.3,40.5,20.2,41.6,19,41.6z"/>
	<path fill="#FFFFFF" d="M27,51.6L27,51.6c-1.3,0-2.3-1-2.3-2.3V2.9c0-1.3,1-2.3,2.3-2.3h0c1.3,0,2.3,1,2.3,2.3v46.4
		C29.3,50.6,28.3,51.6,27,51.6z"/>
	<path fill="#FFFFFF" d="M35,45.6L35,45.6c-1.3,0-2.3-1-2.3-2.3V9c0-1.3,1-2.3,2.3-2.3h0c1.3,0,2.3,1,2.3,2.3v34.3
		C37.3,44.6,36.3,45.6,35,45.6z"/>
	<path fill="#FFFFFF" d="M43.1,41.6L43.1,41.6c-1.3,0-2.3-1-2.3-2.3V15c0-1.3,1-2.3,2.3-2.3h0c1.3,0,2.3,1,2.3,2.3v24.3
		C45.4,40.5,44.4,41.6,43.1,41.6z"/>
	<path fill="#FFFFFF" d="M51.1,35.5L51.1,35.5c-1.3,0-2.3-1-2.3-2.3V21c0-1.3,1-2.3,2.3-2.3h0c1.3,0,2.3,1,2.3,2.3v12.2
		C53.4,34.5,52.4,35.5,51.1,35.5z"/>
</g>
</svg>
