<?xml version="1.0" encoding="utf-8"?>
<!-- Generator: Adobe Illustrator 18.1.1, SVG Export Plug-In . SVG Version: 6.00 Build 0)  -->
<svg version="1.1" id="Layer_1" xmlns="http://www.w3.org/2000/svg" xmlns:xlink="http://www.w3.org/1999/xlink" x="0px" y="0px"
	 viewBox="0 0 180 180" enable-background="new 0 0 180 180" xml:space="preserve">
<g transform="translate(90.669 -507.469)">
	<path fill="#FFFFFF" d="M-0.7,641.7c24.3,0,44-19.7,44-44c0-24.3-19.7-44-44-44s-44,19.7-44,44C-44.7,622-25,641.7-0.7,641.7z"/>
	<path fill="#229342" d="M-38.8,619.7l-38.1-66c-7.7,13.4-11.8,28.5-11.8,44c0,15.4,4.1,30.6,11.8,44c7.7,13.4,18.8,24.5,32.2,32.2
		s28.6,11.8,44,11.8l38.1-66v0c-3.9,6.7-9.4,12.2-16.1,16.1c-13.6,7.9-30.4,7.9-44,0C-29.4,632-34.9,626.4-38.8,619.7L-38.8,619.7z"
		/>
	<path fill="#FBC116" d="M37.4,619.7l-38.1,66c15.4,0,30.6-4.1,44-11.8c13.4-7.7,24.5-18.8,32.2-32.2c7.7-13.4,11.8-28.6,11.8-44
		c0-15.4-4.1-30.6-11.8-44H-0.7l0,0c7.7,0,15.3,2,22,5.9c6.7,3.9,12.2,9.4,16.1,16.1C45.3,589.3,45.3,606.1,37.4,619.7L37.4,619.7z"
		/>
	<path fill="#1A73E8" d="M-0.7,632.5c19.2,0,34.8-15.6,34.8-34.8c0-19.2-15.6-34.8-34.8-34.8s-34.8,15.6-34.8,34.8
		C-35.5,616.9-19.9,632.5-0.7,632.5z"/>
	<path fill="#E33B2E" d="M-0.7,553.7h76.2c-7.7-13.4-18.8-24.5-32.2-32.2c-13.4-7.7-28.5-11.8-44-11.8c-15.4,0-30.6,4.1-44,11.8
		c-13.4,7.7-24.5,18.8-32.2,32.2l38.1,66l0,0c-7.9-13.6-7.9-30.4,0-44c3.9-6.7,9.4-12.2,16.1-16.1S-8.4,553.7-0.7,553.7L-0.7,553.7z
		"/>
</g>
</svg>
