<?xml version="1.0" encoding="utf-8"?>
<!-- Generator: Adobe Illustrator 18.1.1, SVG Export Plug-In . SVG Version: 6.00 Build 0)  -->
<svg version="1.1" id="Layer_1" xmlns="http://www.w3.org/2000/svg" xmlns:xlink="http://www.w3.org/1999/xlink" x="0px" y="0px"
	 viewBox="0 0 180 180" enable-background="new 0 0 180 180" xml:space="preserve">
<g>
	
		<linearGradient id="SVGID_1_" gradientUnits="userSpaceOnUse" x1="63.5045" y1="95.3587" x2="239.151" y2="95.3587" gradientTransform="matrix(0.7031 0 0 0.7031 -2.9375 57.25)">
		<stop  offset="0" style="stop-color:#0C59A4"/>
		<stop  offset="1" style="stop-color:#114A8B"/>
	</linearGradient>
	<path fill="url(#SVGID_1_)" d="M161.1,133.7c-2.4,1.2-4.8,2.3-7.3,3.3c-8,3-16.4,4.5-24.9,4.4c-32.8,0-61.3-22.5-61.3-51.5
		C67.7,82,72.1,74.8,79,71c-29.6,1.2-37.3,32.1-37.3,50.2c0,51.3,47.2,56.4,57.4,56.4c5.5,0,13.7-1.6,18.7-3.2l0.9-0.3
		c19.1-6.6,35.4-19.5,46.1-36.6c0.8-1.3,0.4-3-0.9-3.8C163,133.3,162,133.2,161.1,133.7L161.1,133.7z"/>
	
		<radialGradient id="SVGID_2_" cx="160.5517" cy="110.4033" r="93.9929" gradientTransform="matrix(0.7031 0 0 0.668 -2.9375 51.5195)" gradientUnits="userSpaceOnUse">
		<stop  offset="0.7" style="stop-color:#000000;stop-opacity:0"/>
		<stop  offset="0.9" style="stop-color:#000000;stop-opacity:0.5"/>
		<stop  offset="1" style="stop-color:#000000"/>
	</radialGradient>
	<path opacity="0.35" fill="url(#SVGID_2_)" enable-background="new    " d="M161.1,133.7c-2.4,1.2-4.8,2.3-7.3,3.3
		c-8,3-16.4,4.5-24.9,4.4c-32.8,0-61.3-22.5-61.3-51.5C67.7,82,72.1,74.8,79,71c-29.6,1.2-37.3,32.1-37.3,50.2
		c0,51.3,47.2,56.4,57.4,56.4c5.5,0,13.7-1.6,18.7-3.2l0.9-0.3c19.1-6.6,35.4-19.5,46.1-36.6c0.8-1.3,0.4-3-0.9-3.8
		C163,133.3,162,133.2,161.1,133.7L161.1,133.7z"/>
	
		<linearGradient id="SVGID_3_" gradientUnits="userSpaceOnUse" x1="156.1658" y1="19.1935" x2="46.5074" y2="138.7044" gradientTransform="matrix(0.7031 0 0 0.7031 -2.9375 57.25)">
		<stop  offset="0" style="stop-color:#1B9DE2"/>
		<stop  offset="0.2" style="stop-color:#1595DF"/>
		<stop  offset="0.7" style="stop-color:#0680D7"/>
		<stop  offset="1" style="stop-color:#0078D4"/>
	</linearGradient>
	<path fill="url(#SVGID_3_)" d="M74.3,168.9c-6.2-3.8-11.5-8.8-15.7-14.8C40.3,129.2,45.8,94.2,70.7,76c2.6-1.9,5.4-3.6,8.3-5
		c2.2-1,5.9-2.8,10.8-2.8c7,0.1,13.6,3.4,17.8,9c2.8,3.7,4.3,8.3,4.4,13c0-0.1,17-55.1-55.4-55.1C26.1,35,1.1,63.9,1.1,89.2
		C1,102.6,3.9,115.9,9.5,128c19.1,40.7,65.7,60.7,108.3,46.4C103.2,179,87.3,177,74.3,168.9L74.3,168.9z"/>
	
		<radialGradient id="SVGID_4_" cx="-337.5518" cy="116.4592" r="141.0879" gradientTransform="matrix(0.1055 -0.6961 0.5625 8.437500e-002 20.0195 -105.2633)" gradientUnits="userSpaceOnUse">
		<stop  offset="0.8" style="stop-color:#000000;stop-opacity:0"/>
		<stop  offset="0.9" style="stop-color:#000000;stop-opacity:0.5"/>
		<stop  offset="1" style="stop-color:#000000"/>
	</radialGradient>
	<path opacity="0.41" fill="url(#SVGID_4_)" enable-background="new    " d="M74.3,168.9c-6.2-3.8-11.5-8.8-15.7-14.8
		C40.3,129.2,45.8,94.2,70.7,76c2.6-1.9,5.4-3.6,8.3-5c2.2-1,5.9-2.8,10.8-2.8c7,0.1,13.6,3.4,17.8,9c2.8,3.7,4.3,8.3,4.4,13
		c0-0.1,17-55.1-55.4-55.1C26.1,35,1.1,63.9,1.1,89.2C1,102.6,3.9,115.9,9.5,128c19.1,40.7,65.7,60.7,108.3,46.4
		C103.2,179,87.3,177,74.3,168.9L74.3,168.9z"/>
	
		<radialGradient id="SVGID_5_" cx="114.732" cy="-389.06" r="199.4147" gradientTransform="matrix(-2.812500e-002 0.7031 -1.4977 -5.625000e-002 -560.4664 -68.0609)" gradientUnits="userSpaceOnUse">
		<stop  offset="0" style="stop-color:#35C1F1"/>
		<stop  offset="0.1" style="stop-color:#34C1ED"/>
		<stop  offset="0.2" style="stop-color:#2FC2DF"/>
		<stop  offset="0.3" style="stop-color:#2BC3D2"/>
		<stop  offset="0.7" style="stop-color:#36C752"/>
	</radialGradient>
	<path fill="url(#SVGID_5_)" d="M106.6,104.8c-0.6,0.7-2.4,1.7-2.4,3.9c0,1.8,1.2,3.6,3.3,5.1c9.9,6.9,28.7,6,28.7,6
		c7.4,0,14.6-2,21-5.7c13-7.6,21-21.6,21.1-36.6c0.2-15.5-5.5-25.8-7.8-30.4C155.8,18.2,124.2,1.7,89.7,1.7
		C41.2,1.7,1.7,40.7,1,89.1c0.3-25.3,25.5-45.7,55.4-45.7c2.4,0,16.3,0.2,29.1,6.9c9,4.5,16.5,11.5,21.4,20.3c4.2,7.3,5,16.7,5,20.4
		S110.1,100.3,106.6,104.8L106.6,104.8z"/>
	
		<radialGradient id="SVGID_6_" cx="376.4019" cy="-382.9448" r="95.8649" gradientTransform="matrix(0.1969 0.675 -0.5484 0.1617 -116.7734 -136.8758)" gradientUnits="userSpaceOnUse">
		<stop  offset="0" style="stop-color:#66EB6E"/>
		<stop  offset="1" style="stop-color:#66EB6E;stop-opacity:0"/>
	</radialGradient>
	<path fill="url(#SVGID_6_)" d="M106.6,104.8c-0.6,0.7-2.4,1.7-2.4,3.9c0,1.8,1.2,3.6,3.3,5.1c9.9,6.9,28.7,6,28.7,6
		c7.4,0,14.6-2,21-5.7c13-7.6,21-21.6,21.1-36.6c0.2-15.5-5.5-25.8-7.8-30.4C155.8,18.2,124.2,1.7,89.7,1.7
		C41.2,1.7,1.7,40.7,1,89.1c0.3-25.3,25.5-45.7,55.4-45.7c2.4,0,16.3,0.2,29.1,6.9c9,4.5,16.5,11.5,21.4,20.3c4.2,7.3,5,16.7,5,20.4
		S110.1,100.3,106.6,104.8L106.6,104.8z"/>
</g>
</svg>
