<?xml version="1.0" encoding="utf-8"?>
<!-- Generator: Adobe Illustrator 18.1.1, SVG Export Plug-In . SVG Version: 6.00 Build 0)  -->
<svg version="1.1" id="Layer_1" xmlns="http://www.w3.org/2000/svg" xmlns:xlink="http://www.w3.org/1999/xlink" x="0px" y="0px"
	 viewBox="0 0 180 180" enable-background="new 0 0 180 180" xml:space="preserve">
<g transform="matrix(.9819843 0 0 .9819843 .6974849 .7199239)">
	
		<linearGradient id="SVGID_1_" gradientUnits="userSpaceOnUse" x1="163.4923" y1="154.6265" x2="18.5463" y2="14.7784" gradientTransform="matrix(0.982 0 0 -0.982 -0.5842 181.2944)">
		<stop  offset="4.800000e-002" style="stop-color:#FFF44F"/>
		<stop  offset="0.111" style="stop-color:#FFE847"/>
		<stop  offset="0.225" style="stop-color:#FFC830"/>
		<stop  offset="0.368" style="stop-color:#FF980E"/>
		<stop  offset="0.401" style="stop-color:#FF8B16"/>
		<stop  offset="0.462" style="stop-color:#FF672A"/>
		<stop  offset="0.534" style="stop-color:#FF3647"/>
		<stop  offset="0.705" style="stop-color:#E31587"/>
	</linearGradient>
	<path fill="url(#SVGID_1_)" d="M171.5,62c-3.8-9.1-11.5-19-17.5-22.1c4.3,8.3,7.3,17.3,8.8,26.5l0,0.1C153,42,136.3,32,122.6,10.4
		c-0.7-1.1-1.4-2.2-2.1-3.3c-0.4-0.7-0.7-1.3-1-1.8c-0.6-1.1-1-2.3-1.3-3.5c0-0.1-0.1-0.2-0.2-0.2c-0.1,0-0.1,0-0.2,0c0,0,0,0,0,0
		s0,0-0.1,0l0-0.1C95.9,14.4,88.5,38.2,87.8,50.1c-8.8,0.6-17.1,3.8-24,9.3c-0.7-0.6-1.5-1.2-2.3-1.7c-2-7-2.1-14.3-0.2-21.3
		c-8.1,3.9-15.2,9.4-21,16.2h0c-3.5-4.4-3.2-18.8-3-21.9c-1,0.4-2,0.9-2.9,1.5c-3.1,2.2-5.9,4.6-8.5,7.3c-3,3-5.7,6.3-8.2,9.8v0v0
		C12,57.3,8,66.3,5.9,75.8l-0.1,0.6C5.6,77.1,5,81,4.9,81.8c0,0.1,0,0.1,0,0.2c-0.8,4-1.2,8-1.4,12v0.5
		c0.1,48.2,39.2,87.2,87.5,87.2c42.4-0.1,78.6-30.6,85.9-72.4c0.1-1.1,0.3-2.2,0.4-3.4C179,91,177.1,75.9,171.5,62L171.5,62z
		 M70.9,130.4c0.4,0.2,0.8,0.4,1.2,0.6l0.1,0C71.8,130.8,71.3,130.6,70.9,130.4z M162.9,66.6L162.9,66.6L162.9,66.6L162.9,66.6z"/>
	
		<radialGradient id="SVGID_2_" cx="-7963.811" cy="8842.7549" r="182.0188" gradientTransform="matrix(0.982 0 0 -0.982 7974.7183 8705.3008)" gradientUnits="userSpaceOnUse">
		<stop  offset="0.129" style="stop-color:#FFBD4F"/>
		<stop  offset="0.186" style="stop-color:#FFAC31"/>
		<stop  offset="0.247" style="stop-color:#FF9D17"/>
		<stop  offset="0.283" style="stop-color:#FF980E"/>
		<stop  offset="0.403" style="stop-color:#FF563B"/>
		<stop  offset="0.467" style="stop-color:#FF3750"/>
		<stop  offset="0.71" style="stop-color:#F5156C"/>
		<stop  offset="0.782" style="stop-color:#EB0878"/>
		<stop  offset="0.86" style="stop-color:#E50080"/>
	</radialGradient>
	<path fill="url(#SVGID_2_)" d="M171.5,62c-3.8-9.1-11.5-19-17.5-22.1c4.3,8.3,7.3,17.3,8.8,26.5v0.1l0,0.1
		c6.7,19.3,5.8,40.4-2.7,58.9C150.2,147,126,169,88,167.9c-41-1.2-77-31.6-83.8-71.4C3,90.3,4.3,87.1,4.9,82c-0.8,4-1.3,8-1.4,12
		v0.5c0.1,48.2,39.2,87.2,87.5,87.2c42.4-0.1,78.6-30.6,85.9-72.4c0.1-1.1,0.3-2.2,0.4-3.4C179,91,177.1,75.9,171.5,62L171.5,62z"/>
	
		<radialGradient id="SVGID_3_" cx="-8032.6323" cy="8767.0518" r="182.0188" gradientTransform="matrix(0.982 0 0 -0.982 7974.7183 8705.3008)" gradientUnits="userSpaceOnUse">
		<stop  offset="0.3" style="stop-color:#960E18"/>
		<stop  offset="0.351" style="stop-color:#B11927;stop-opacity:0.74"/>
		<stop  offset="0.435" style="stop-color:#DB293D;stop-opacity:0.343"/>
		<stop  offset="0.497" style="stop-color:#F5334B;stop-opacity:9.400000e-002"/>
		<stop  offset="0.53" style="stop-color:#FF3750;stop-opacity:0"/>
	</radialGradient>
	<path fill="url(#SVGID_3_)" d="M171.5,62c-3.8-9.1-11.5-19-17.5-22.1c4.3,8.3,7.3,17.3,8.8,26.5v0.1l0,0.1
		c6.7,19.3,5.8,40.4-2.7,58.9C150.2,147,126,169,88,167.9c-41-1.2-77-31.6-83.8-71.4C3,90.3,4.3,87.1,4.9,82c-0.8,4-1.3,8-1.4,12
		v0.5c0.1,48.2,39.2,87.2,87.5,87.2c42.4-0.1,78.6-30.6,85.9-72.4c0.1-1.1,0.3-2.2,0.4-3.4C179,91,177.1,75.9,171.5,62L171.5,62z"/>
	
		<radialGradient id="SVGID_4_" cx="-8009.6919" cy="8884.0479" r="131.851" gradientTransform="matrix(0.982 0 0 -0.982 7974.7183 8705.3008)" gradientUnits="userSpaceOnUse">
		<stop  offset="0.132" style="stop-color:#FFF44F"/>
		<stop  offset="0.252" style="stop-color:#FFDC3E"/>
		<stop  offset="0.506" style="stop-color:#FF9D12"/>
		<stop  offset="0.526" style="stop-color:#FF980E"/>
	</radialGradient>
	<path fill="url(#SVGID_4_)" d="M129.1,72.3c0.2,0.1,0.4,0.3,0.5,0.4c-2.2-3.9-4.9-7.4-8.1-10.6c-27.1-27.1-7.1-58.8-3.7-60.5l0,0
		C95.9,14.4,88.5,38.2,87.8,50.1c1-0.1,2-0.2,3.1-0.2C106.7,50,121.3,58.5,129.1,72.3L129.1,72.3z"/>
	
		<radialGradient id="SVGID_5_" cx="-8053.2788" cy="8718.877" r="86.6617" gradientTransform="matrix(0.982 0 0 -0.982 7974.7183 8705.3008)" gradientUnits="userSpaceOnUse">
		<stop  offset="0.353" style="stop-color:#3A8EE6"/>
		<stop  offset="0.472" style="stop-color:#5C79F0"/>
		<stop  offset="0.669" style="stop-color:#9059FF"/>
		<stop  offset="1" style="stop-color:#C139E6"/>
	</radialGradient>
	<path fill="url(#SVGID_5_)" d="M90.9,77.7c-0.1,2.2-7.8,9.7-10.5,9.7c-24.8,0-28.9,15-28.9,15c1.1,12.6,9.9,23.1,20.6,28.6
		c0.5,0.3,1,0.5,1.5,0.7c0.9,0.4,1.7,0.7,2.6,1c3.7,1.3,7.5,2,11.4,2.2c43.5,2,51.9-52,20.5-67.7c7.4-1,14.9,0.9,21.1,5.1
		c-7.8-13.8-22.4-22.3-38.3-22.3c-1,0-2,0.1-3.1,0.2c-8.8,0.6-17.1,3.8-24,9.3c1.3,1.1,2.8,2.6,6,5.8C75.7,70.9,90.9,77,90.9,77.7
		L90.9,77.7z"/>
	
		<radialGradient id="SVGID_6_" cx="-8038.7993" cy="8782.8027" r="45.9552" gradientTransform="matrix(0.9545 -0.2308 -0.27 -1.1175 10140.3047 8040.251)" gradientUnits="userSpaceOnUse">
		<stop  offset="0.206" style="stop-color:#9059FF;stop-opacity:0"/>
		<stop  offset="0.278" style="stop-color:#8C4FF3;stop-opacity:6.400000e-002"/>
		<stop  offset="0.747" style="stop-color:#7716A8;stop-opacity:0.45"/>
		<stop  offset="0.975" style="stop-color:#6E008B;stop-opacity:0.6"/>
	</radialGradient>
	<path fill="url(#SVGID_6_)" d="M90.9,77.7c-0.1,2.2-7.8,9.7-10.5,9.7c-24.8,0-28.9,15-28.9,15c1.1,12.6,9.9,23.1,20.6,28.6
		c0.5,0.3,1,0.5,1.5,0.7c0.9,0.4,1.7,0.7,2.6,1c3.7,1.3,7.5,2,11.4,2.2c43.5,2,51.9-52,20.5-67.7c7.4-1,14.9,0.9,21.1,5.1
		c-7.8-13.8-22.4-22.3-38.3-22.3c-1,0-2,0.1-3.1,0.2c-8.8,0.6-17.1,3.8-24,9.3c1.3,1.1,2.8,2.6,6,5.8C75.7,70.9,90.9,77,90.9,77.7
		L90.9,77.7z"/>
	
		<radialGradient id="SVGID_7_" cx="-8034.9263" cy="8849.6377" r="62.355" gradientTransform="matrix(0.982 0 0 -0.982 7974.7183 8705.3008)" gradientUnits="userSpaceOnUse">
		<stop  offset="0" style="stop-color:#FFE226"/>
		<stop  offset="0.121" style="stop-color:#FFDB27"/>
		<stop  offset="0.295" style="stop-color:#FFC82A"/>
		<stop  offset="0.502" style="stop-color:#FFA930"/>
		<stop  offset="0.732" style="stop-color:#FF7E37"/>
		<stop  offset="0.792" style="stop-color:#FF7139"/>
	</radialGradient>
	<path fill="url(#SVGID_7_)" d="M59.7,56.5c0.7,0.5,1.3,0.8,1.8,1.2c-2-7-2.1-14.3-0.2-21.3c-8.1,3.9-15.2,9.4-21,16.2
		C40.6,52.5,53.3,52.3,59.7,56.5z"/>
	
		<radialGradient id="SVGID_8_" cx="-7984.4575" cy="8890.9297" r="266.0448" gradientTransform="matrix(0.982 0 0 -0.982 7974.7183 8705.3008)" gradientUnits="userSpaceOnUse">
		<stop  offset="0.113" style="stop-color:#FFF44F"/>
		<stop  offset="0.456" style="stop-color:#FF980E"/>
		<stop  offset="0.622" style="stop-color:#FF5634"/>
		<stop  offset="0.716" style="stop-color:#FF3647"/>
		<stop  offset="0.904" style="stop-color:#E31587"/>
	</radialGradient>
	<path fill="url(#SVGID_8_)" d="M4.2,96.6c6.7,39.8,42.8,70.2,83.8,71.4c37.9,1.1,62.1-20.9,72.1-42.4c8.5-18.6,9.4-39.7,2.7-58.9
		v-0.1c0-0.1,0-0.1,0-0.1l0,0.1c3.1,20.2-7.2,39.8-23.3,53.1l0,0.1c-31.3,25.5-61.3,15.4-67.4,11.3c-0.4-0.2-0.8-0.4-1.3-0.6
		c-18.3-8.7-25.8-25.4-24.2-39.6c-8.9,0.1-17-5-20.7-13c9.8-6,21.9-6.5,32.1-1.3c10.3,4.7,22.1,5.2,32.8,1.3
		c0-0.7-15.2-6.8-21.2-12.6c-3.2-3.1-4.7-4.6-6-5.8c-0.7-0.6-1.5-1.2-2.3-1.7c-0.5-0.4-1.1-0.7-1.8-1.2c-6.4-4.1-19-3.9-19.5-3.9h0
		c-3.5-4.4-3.2-18.8-3-21.9c-1,0.4-2,0.9-2.9,1.5c-3.1,2.2-5.9,4.6-8.5,7.3c-3,3-5.7,6.3-8.2,9.8v0v0c-5.6,8-9.6,16.9-11.7,26.4
		C5.8,76,2.7,89.5,4.2,96.6L4.2,96.6z"/>
	
		<radialGradient id="SVGID_9_" cx="-8071.7534" cy="8960.8184" r="194.8593" gradientTransform="matrix(0.1031 0.9771 0.6412 -6.775691e-002 -4801.7378 8483.1592)" gradientUnits="userSpaceOnUse">
		<stop  offset="0" style="stop-color:#FFF44F"/>
		<stop  offset="6.000000e-002" style="stop-color:#FFE847"/>
		<stop  offset="0.168" style="stop-color:#FFC830"/>
		<stop  offset="0.304" style="stop-color:#FF980E"/>
		<stop  offset="0.356" style="stop-color:#FF8B16"/>
		<stop  offset="0.455" style="stop-color:#FF672A"/>
		<stop  offset="0.57" style="stop-color:#FF3647"/>
		<stop  offset="0.737" style="stop-color:#E31587"/>
	</radialGradient>
	<path fill="url(#SVGID_9_)" d="M121.5,62.1c3.2,3.1,5.9,6.7,8.1,10.6c0.5,0.4,0.9,0.7,1.3,1.1c19.8,18.2,9.4,44,8.7,45.9
		c16.1-13.2,26.4-32.8,23.3-53.1C153,41.9,136.2,32,122.6,10.4c-0.7-1.1-1.4-2.2-2.1-3.3c-0.4-0.7-0.7-1.3-1-1.8
		c-0.6-1.1-1-2.3-1.3-3.5c0-0.1-0.1-0.2-0.2-0.2c-0.1,0-0.1,0-0.2,0c0,0,0,0,0,0c0,0,0,0-0.1,0C114.4,3.2,94.4,34.9,121.5,62.1
		L121.5,62.1z"/>
	
		<radialGradient id="SVGID_10_" cx="-8034.9263" cy="8826.6973" r="166.0696" gradientTransform="matrix(0.982 0 0 -0.982 7974.7183 8705.3008)" gradientUnits="userSpaceOnUse">
		<stop  offset="0.137" style="stop-color:#FFF44F"/>
		<stop  offset="0.48" style="stop-color:#FF980E"/>
		<stop  offset="0.592" style="stop-color:#FF5634"/>
		<stop  offset="0.655" style="stop-color:#FF3647"/>
		<stop  offset="0.904" style="stop-color:#E31587"/>
	</radialGradient>
	<path fill="url(#SVGID_10_)" d="M131,73.8c-0.4-0.3-0.8-0.7-1.3-1.1c-0.2-0.1-0.4-0.3-0.5-0.4c-6.1-4.3-13.6-6.1-21.1-5.1
		c31.4,15.7,23,69.8-20.5,67.7c-3.9-0.2-7.7-0.9-11.4-2.2c-0.9-0.3-1.7-0.7-2.6-1c-0.5-0.2-1-0.5-1.5-0.7l0.1,0
		c6.1,4.1,36,14.3,67.4-11.3l0-0.1C140.4,117.8,150.8,92,131,73.8L131,73.8z"/>
	
		<radialGradient id="SVGID_11_" cx="-7991.3394" cy="8817.5205" r="181.771" gradientTransform="matrix(0.982 0 0 -0.982 7974.7183 8705.3008)" gradientUnits="userSpaceOnUse">
		<stop  offset="9.400000e-002" style="stop-color:#FFF44F"/>
		<stop  offset="0.231" style="stop-color:#FFE141"/>
		<stop  offset="0.509" style="stop-color:#FFAF1E"/>
		<stop  offset="0.626" style="stop-color:#FF980E"/>
	</radialGradient>
	<path fill="url(#SVGID_11_)" d="M51.5,102.4c0,0,4-15,28.9-15c2.7,0,10.4-7.5,10.5-9.7c-10.7,3.9-22.4,3.4-32.8-1.3
		c-10.2-5.2-22.4-4.7-32.1,1.3c3.7,8,11.8,13.1,20.7,13c-1.6,14.3,5.9,30.9,24.2,39.6c0.4,0.2,0.8,0.4,1.2,0.6
		C61.4,125.4,52.6,115,51.5,102.4L51.5,102.4z"/>
	
		<linearGradient id="SVGID_12_" gradientUnits="userSpaceOnUse" x1="161.7156" y1="155.3699" x2="38.4024" y2="32.0341" gradientTransform="matrix(0.982 0 0 -0.982 -0.5842 181.2944)">
		<stop  offset="0.167" style="stop-color:#FFF44F;stop-opacity:0.8"/>
		<stop  offset="0.266" style="stop-color:#FFF44F;stop-opacity:0.634"/>
		<stop  offset="0.489" style="stop-color:#FFF44F;stop-opacity:0.217"/>
		<stop  offset="0.6" style="stop-color:#FFF44F;stop-opacity:0"/>
	</linearGradient>
	<path fill="url(#SVGID_12_)" d="M171.5,62c-3.8-9.1-11.5-19-17.5-22.1c4.3,8.3,7.3,17.3,8.8,26.5l0,0.1C153,42,136.3,32,122.6,10.4
		c-0.7-1.1-1.4-2.2-2.1-3.3c-0.4-0.7-0.7-1.3-1-1.8c-0.6-1.1-1-2.3-1.3-3.5c0-0.1-0.1-0.2-0.2-0.2c-0.1,0-0.1,0-0.2,0c0,0,0,0,0,0
		s0,0-0.1,0l0-0.1C95.9,14.4,88.5,38.2,87.8,50.1c1-0.1,2-0.2,3.1-0.2c15.8,0,30.4,8.6,38.3,22.3c-6.1-4.3-13.6-6.1-21.1-5.1
		c31.4,15.7,23,69.8-20.5,67.7c-3.9-0.2-7.7-0.9-11.4-2.2c-0.9-0.3-1.7-0.7-2.6-1c-0.5-0.2-1-0.5-1.5-0.7l0.1,0
		c-0.4-0.2-0.8-0.4-1.3-0.6c0.4,0.2,0.8,0.4,1.2,0.6c-10.7-5.5-19.5-15.9-20.6-28.6c0,0,4-15,28.9-15c2.7,0,10.4-7.5,10.5-9.7
		c0-0.7-15.2-6.8-21.2-12.6c-3.2-3.1-4.7-4.6-6-5.8c-0.7-0.6-1.5-1.2-2.3-1.7c-2-7-2.1-14.3-0.2-21.3c-8.1,3.9-15.2,9.4-21,16.2h0
		c-3.5-4.4-3.2-18.8-3-21.9c-1,0.4-2,0.9-2.9,1.5c-3.1,2.2-5.9,4.6-8.5,7.3c-3,3-5.7,6.3-8.2,9.8v0v0C12,57.3,8,66.3,5.9,75.8
		l-0.1,0.6c-0.2,0.8-0.9,4.7-1,5.5C4.1,85.9,3.6,90,3.5,94v0.5c0.1,48.2,39.2,87.2,87.5,87.2c42.4-0.1,78.6-30.6,85.9-72.4
		c0.1-1.1,0.3-2.2,0.4-3.4C179,91,177.1,75.9,171.5,62L171.5,62z M162.9,66.5L162.9,66.5L162.9,66.5z"/>
</g>
</svg>
