<?xml version="1.0" encoding="utf-8"?>
<!-- Generator: Adobe Illustrator 18.1.1, SVG Export Plug-In . SVG Version: 6.00 Build 0)  -->
<svg version="1.1" id="Layer_1" xmlns="http://www.w3.org/2000/svg" xmlns:xlink="http://www.w3.org/1999/xlink" x="0px" y="0px"
	 viewBox="0 0 310 55" enable-background="new 0 0 310 55" xml:space="preserve">
<g>
	<g>
		<path fill="#1465E7" d="M12.5,41c1.4-3.6,11.7-28,42.1-40.5c0.1-0.1,0.3,0,0.3,0.2c-0.1,1.4-0.5,7.1-3.6,12.5c0,0,0,0.1-0.1,0.1
			c-0.6,0.3-5.8,3-9.1,3.6c-0.2,0-0.2,0.3,0,0.4c1.2,0.5,3.8,1.3,6,1c0.2,0,0.3,0.2,0.2,0.3c-0.8,1.2-3.2,4.7-4.7,5.6c0,0,0,0-0.1,0
			c-0.4,0.1-5,1-9.3,0.8c-0.2,0-0.3,0.2-0.1,0.4c0.9,0.6,2.8,1.9,4.8,2.5c0.2,0,0.2,0.3,0.1,0.4c-1,0.7-3.9,2.7-5.4,3.3c0,0,0,0,0,0
			c-0.1,0.1-1.7,1-6-0.6c-4.6-1.6-7.3,1.8-8.7,7.6c0,0.1-0.1,0.1-0.1,0.1l-6,2.6C12.6,41.3,12.4,41.2,12.5,41z"/>
		<g>
			<path fill="#1465E7" d="M42.5,48.3h-35c-0.3,0-0.5-0.2-0.5-0.5V13.2c0-0.3,0.2-0.5,0.5-0.5h19.7c0.1,0,0.2,0,0.3-0.1l6-5.3
				c0.3-0.3,0.1-0.8-0.3-0.8H1.5C1.2,6.5,1,6.7,1,7v47.1c0,0.3,0.2,0.5,0.5,0.5h47c0.3,0,0.5-0.2,0.5-0.5V25.9
				c0-0.4-0.5-0.6-0.8-0.3l-5.1,4.8c-0.1,0.1-0.1,0.2-0.1,0.3v17.1C42.9,48.1,42.7,48.3,42.5,48.3z"/>
		</g>
	</g>
	<text transform="matrix(1 0 0 1 63.0544 45.1388)"><tspan x="0" y="0" fill="#1465E7" font-family="Ubuntu" font-weight='400' font-size="44.893">Swift</tspan><tspan x="105.5" y="0" fill="#1465E7" font-family="Ubuntu" font-weight='500' font-size="44.893">Notion</tspan></text>
</g>
</svg>
