<?xml version="1.0" encoding="utf-8"?>
<!-- Generator: Adobe Illustrator 18.1.1, SVG Export Plug-In . SVG Version: 6.00 Build 0)  -->
<svg version="1.1" id="Layer_1" xmlns="http://www.w3.org/2000/svg" xmlns:xlink="http://www.w3.org/1999/xlink" x="0px" y="0px"
	 viewBox="0 0 180 180" enable-background="new 0 0 180 180" xml:space="preserve">
<g>
	<g opacity="0.53" enable-background="new    ">
		<path d="M175.7,97.5c0,45.5-38.3,82.3-85.5,82.3h0c-47.2,0-85.5-36.8-85.5-82.3S43,15.2,90.2,15.2C137.4,15.2,175.7,52,175.7,97.5
			z"/>
	</g>
	
		<linearGradient id="SVGID_1_" gradientUnits="userSpaceOnUse" x1="409.4062" y1="-56.8073" x2="409.4062" y2="121.2717" gradientTransform="matrix(0.9965 0 0 -0.9965 -317.7473 122.3408)">
		<stop  offset="0" style="stop-color:#BDBDBD"/>
		<stop  offset="1" style="stop-color:#FFFFFF"/>
	</linearGradient>
	<path fill="url(#SVGID_1_)" stroke="#CDCDCD" stroke-width="9.301235e-002" stroke-linecap="round" stroke-linejoin="round" d="
		M178.9,90.2c0,49-39.7,88.7-88.7,88.7l0,0c-49,0-88.7-39.7-88.7-88.7c0-49,39.7-88.7,88.7-88.7l0,0
		C139.2,1.5,178.9,41.2,178.9,90.2L178.9,90.2L178.9,90.2z"/>
	
		<radialGradient id="SVGID_2_" cx="409.8472" cy="43.9275" r="82.0618" gradientTransform="matrix(1.0812 0 0 -1.0812 -352.5436 125.7932)" gradientUnits="userSpaceOnUse">
		<stop  offset="0" style="stop-color:#06C2E7"/>
		<stop  offset="0.25" style="stop-color:#0DB8EC"/>
		<stop  offset="0.5" style="stop-color:#12AEF1"/>
		<stop  offset="0.75" style="stop-color:#1F86F9"/>
		<stop  offset="1" style="stop-color:#107DDD"/>
	</radialGradient>
	<path fill="url(#SVGID_2_)" d="M172,90.2c0,45.2-36.6,81.8-81.8,81.8l0,0c-45.2,0-81.8-36.6-81.8-81.8l0,0
		c0-45.2,36.6-81.8,81.8-81.8l0,0C135.4,8.4,172,45.1,172,90.2L172,90.2z"/>
	<path fill="#F4F2F3" d="M90.2,12.7c-0.7,0-1.2,0.5-1.2,1.2v13.8c0,0.7,0.5,1.2,1.2,1.2c0.7,0,1.2-0.5,1.2-1.2V13.9
		C91.4,13.2,90.9,12.7,90.2,12.7z M82.4,13.2c-0.1,0-0.2,0-0.2,0c-0.7,0.1-1.1,0.7-1.1,1.3l0.6,5.8c0.1,0.7,0.7,1.1,1.3,1.1
		c0.7-0.1,1.1-0.7,1.1-1.3l-0.6-5.8C83.4,13.7,83,13.3,82.4,13.2L82.4,13.2z M98.1,13.2c-0.6,0.1-1,0.5-1.1,1.1L96.4,20
		c-0.1,0.7,0.4,1.2,1.1,1.3c0.7,0.1,1.2-0.4,1.3-1.1l0.6-5.8c0.1-0.7-0.4-1.2-1.1-1.3C98.2,13.2,98.2,13.2,98.1,13.2L98.1,13.2z
		 M74.4,14.4c-0.1,0-0.2,0-0.2,0c-0.6,0.1-1.1,0.8-0.9,1.4l2.8,13.5c0.1,0.6,0.8,1.1,1.4,0.9c0.6-0.1,1.1-0.8,0.9-1.4l-2.8-13.5
		C75.5,14.7,75,14.4,74.4,14.4L74.4,14.4z M106.1,14.4c-0.6,0-1.1,0.4-1.2,0.9l-2.9,13.5c-0.1,0.6,0.3,1.3,0.9,1.4
		c0.6,0.1,1.3-0.3,1.4-0.9l2.9-13.5c0.1-0.6-0.3-1.3-0.9-1.4C106.2,14.4,106.2,14.4,106.1,14.4L106.1,14.4z M66.8,16.5
		c-0.2,0-0.3,0-0.5,0.1c-0.6,0.2-1,0.9-0.8,1.5l1.8,5.5c0.2,0.6,0.9,1,1.5,0.8c0.6-0.2,1-0.9,0.8-1.5l-1.8-5.5
		C67.6,16.9,67.2,16.6,66.8,16.5L66.8,16.5z M113.7,16.5c-0.5,0-0.9,0.3-1,0.8l-1.8,5.5c-0.2,0.6,0.1,1.3,0.8,1.5
		c0.6,0.2,1.3-0.1,1.5-0.8l1.8-5.5c0.2-0.6-0.1-1.3-0.8-1.5C114,16.5,113.8,16.5,113.7,16.5L113.7,16.5z M59.2,19.3
		c-0.2,0-0.3,0-0.5,0.1c-0.6,0.3-0.9,1-0.6,1.6l5.6,12.6c0.3,0.6,1,0.9,1.6,0.6c0.6-0.3,0.9-1,0.6-1.6L60.3,20
		C60.1,19.5,59.7,19.3,59.2,19.3L59.2,19.3z M121.3,19.3c-0.5,0-0.9,0.3-1.1,0.7l-5.6,12.6c-0.3,0.6,0,1.3,0.6,1.6
		c0.6,0.3,1.3,0,1.6-0.6l5.6-12.6c0.3-0.6,0-1.3-0.6-1.6C121.6,19.4,121.5,19.3,121.3,19.3L121.3,19.3z M52.2,23
		c-0.2,0-0.5,0-0.7,0.2c-0.6,0.3-0.8,1.1-0.4,1.6l2.9,5c0.3,0.6,1.1,0.8,1.6,0.4c0.6-0.3,0.8-1.1,0.4-1.6l-2.9-5
		C52.9,23.2,52.6,23,52.2,23L52.2,23z M128.3,23c-0.4,0-0.7,0.2-0.9,0.6l-2.9,5c-0.3,0.6-0.1,1.3,0.4,1.6c0.6,0.3,1.3,0.1,1.6-0.4
		l2.9-5c0.3-0.6,0.1-1.3-0.4-1.6C128.7,23,128.5,23,128.3,23L128.3,23z M45.4,27.3c-0.2,0-0.5,0.1-0.7,0.2c-0.5,0.4-0.7,1.1-0.3,1.7
		l8.1,11.1c0.4,0.5,1.1,0.7,1.7,0.3c0.5-0.4,0.7-1.1,0.3-1.7l-8.1-11.1C46.1,27.4,45.8,27.2,45.4,27.3L45.4,27.3z M135.2,27.3
		c-0.4,0-0.8,0.2-1,0.5l-8.1,11.1c-0.4,0.5-0.3,1.3,0.3,1.7c0.5,0.4,1.3,0.3,1.7-0.3l8.1-11.1c0.4-0.5,0.3-1.3-0.3-1.7
		C135.6,27.4,135.4,27.3,135.2,27.3L135.2,27.3z M39.3,32.4c-0.3,0-0.6,0.1-0.9,0.3c-0.5,0.4-0.5,1.2-0.1,1.7l3.9,4.3
		c0.4,0.5,1.2,0.5,1.7,0.1c0.5-0.4,0.5-1.2,0.1-1.7l-3.9-4.3C39.9,32.5,39.6,32.4,39.3,32.4L39.3,32.4z M141.2,32.4
		c-0.3,0-0.6,0.1-0.8,0.4l-3.9,4.3c-0.4,0.5-0.4,1.2,0.1,1.7c0.5,0.4,1.2,0.4,1.7-0.1l3.9-4.3c0.4-0.5,0.4-1.2-0.1-1.7
		C141.8,32.5,141.5,32.4,141.2,32.4L141.2,32.4z M33.4,38c-0.3,0-0.6,0.1-0.8,0.4c-0.4,0.5-0.4,1.2,0.1,1.7l10.2,9.2
		c0.5,0.4,1.2,0.4,1.7-0.1c0.4-0.5,0.4-1.2-0.1-1.7l-10.2-9.2C34.1,38.1,33.7,38,33.4,38L33.4,38z M147,38c-0.3,0-0.6,0.1-0.9,0.3
		L136,47.5c-0.5,0.4-0.5,1.2-0.1,1.7c0.4,0.5,1.2,0.5,1.7,0.1l10.2-9.2c0.5-0.4,0.5-1.2,0.1-1.7C147.6,38.2,147.3,38,147,38L147,38z
		 M28.6,44.2c-0.4,0-0.8,0.2-1,0.5c-0.4,0.5-0.3,1.3,0.3,1.7l4.7,3.4c0.5,0.4,1.3,0.3,1.7-0.3c0.4-0.5,0.3-1.3-0.3-1.7l-4.7-3.4
		C29,44.3,28.8,44.2,28.6,44.2L28.6,44.2z M151.9,44.3c-0.2,0-0.5,0.1-0.7,0.2l-4.7,3.4c-0.5,0.4-0.7,1.1-0.3,1.7
		c0.4,0.5,1.1,0.7,1.7,0.3l4.7-3.4c0.5-0.4,0.7-1.1,0.3-1.7C152.7,44.4,152.3,44.2,151.9,44.3L151.9,44.3z M24,50.9
		c-0.4,0-0.7,0.2-0.9,0.6c-0.3,0.6-0.1,1.3,0.4,1.6L35.4,60c0.6,0.3,1.3,0.1,1.6-0.4s0.1-1.3-0.4-1.6L24.7,51
		C24.5,50.9,24.3,50.9,24,50.9L24,50.9z M156.4,50.9c-0.2,0-0.5,0-0.7,0.2l-11.9,6.9c-0.6,0.3-0.8,1.1-0.4,1.6s1.1,0.8,1.6,0.4
		l11.9-6.9c0.6-0.3,0.8-1.1,0.4-1.6C157.1,51.1,156.8,50.9,156.4,50.9L156.4,50.9z M20.6,58c-0.5,0-0.9,0.3-1.1,0.7
		c-0.3,0.6,0,1.3,0.6,1.6l5.3,2.4c0.6,0.3,1.3,0,1.6-0.6c0.3-0.6,0-1.3-0.6-1.6l-5.3-2.4C20.9,58,20.8,58,20.6,58z M159.9,58
		c-0.2,0-0.3,0-0.5,0.1l-5.3,2.4c-0.6,0.3-0.9,1-0.6,1.6c0.3,0.6,1,0.9,1.6,0.6l5.3-2.4c0.6-0.3,0.9-1,0.6-1.6
		C160.8,58.3,160.3,58,159.9,58L159.9,58z M17.6,65.4c-0.5,0-0.9,0.3-1,0.8c-0.2,0.6,0.1,1.3,0.8,1.5L30.4,72
		c0.6,0.2,1.3-0.1,1.5-0.8c0.2-0.6-0.1-1.3-0.8-1.5L18,65.4C17.9,65.4,17.7,65.4,17.6,65.4L17.6,65.4z M162.9,65.4
		c-0.2,0-0.3,0-0.5,0.1l-13.1,4.3c-0.6,0.2-1,0.9-0.8,1.5c0.2,0.6,0.9,1,1.5,0.8l13.1-4.3c0.6-0.2,1-0.9,0.8-1.5
		C163.8,65.8,163.4,65.5,162.9,65.4L162.9,65.4z M15.7,73.2c-0.6,0-1.1,0.4-1.2,0.9c-0.1,0.6,0.3,1.3,0.9,1.4l5.7,1.2
		c0.6,0.1,1.3-0.3,1.4-0.9c0.1-0.6-0.3-1.3-0.9-1.4l-5.7-1.2C15.8,73.2,15.7,73.2,15.7,73.2L15.7,73.2z M164.8,73.2
		c-0.1,0-0.2,0-0.2,0l-5.7,1.2c-0.6,0.1-1.1,0.8-0.9,1.4c0.1,0.6,0.8,1.1,1.4,0.9l5.7-1.2c0.6-0.1,1.1-0.8,0.9-1.4
		C165.8,73.6,165.3,73.2,164.8,73.2L164.8,73.2z M14.2,81c-0.6,0.1-1,0.5-1.1,1.1c-0.1,0.7,0.4,1.2,1.1,1.3l13.7,1.4
		c0.7,0.1,1.2-0.4,1.3-1.1c0.1-0.7-0.4-1.2-1.1-1.3L14.5,81C14.4,81,14.3,81,14.2,81L14.2,81z M166.2,81.1c-0.1,0-0.2,0-0.2,0
		l-13.7,1.4c-0.7,0.1-1.1,0.7-1.1,1.3c0.1,0.7,0.7,1.1,1.3,1.1l13.7-1.4c0.7-0.1,1.1-0.7,1.1-1.3C167.3,81.6,166.8,81.2,166.2,81.1
		L166.2,81.1z M14,89c-0.7,0-1.2,0.5-1.2,1.2c0,0.7,0.5,1.2,1.2,1.2h5.8c0.7,0,1.2-0.5,1.2-1.2c0-0.7-0.5-1.2-1.2-1.2H14z M160.7,89
		c-0.7,0-1.2,0.5-1.2,1.2c0,0.7,0.5,1.2,1.2,1.2h5.8c0.7,0,1.2-0.5,1.2-1.2c0-0.7-0.5-1.2-1.2-1.2H160.7z M28.1,95.5
		c-0.1,0-0.2,0-0.2,0L14.2,97c-0.7,0.1-1.1,0.7-1.1,1.3c0.1,0.7,0.7,1.1,1.3,1.1l13.7-1.4c0.7-0.1,1.1-0.7,1.1-1.3
		C29.1,96,28.7,95.6,28.1,95.5L28.1,95.5z M152.3,95.6c-0.6,0.1-1,0.5-1.1,1.1c-0.1,0.7,0.4,1.2,1.1,1.3l13.7,1.4
		c0.7,0.1,1.2-0.4,1.3-1.1c0.1-0.7-0.4-1.2-1.1-1.3l-13.7-1.4C152.5,95.6,152.4,95.6,152.3,95.6L152.3,95.6z M21.3,103.7
		c-0.1,0-0.2,0-0.2,0l-5.7,1.2c-0.6,0.1-1.1,0.8-0.9,1.4c0.1,0.6,0.8,1.1,1.4,0.9l5.7-1.2c0.6-0.1,1.1-0.8,0.9-1.4
		C22.3,104,21.9,103.7,21.3,103.7L21.3,103.7z M159.1,103.7c-0.6,0-1.1,0.4-1.2,0.9c-0.1,0.6,0.3,1.3,0.9,1.4l5.7,1.2
		c0.6,0.1,1.3-0.3,1.4-0.9c0.1-0.6-0.3-1.3-0.9-1.4l-5.7-1.2C159.3,103.7,159.2,103.7,159.1,103.7L159.1,103.7z M30.8,108.4
		c-0.2,0-0.3,0-0.5,0.1l-13.1,4.3c-0.6,0.2-1,0.9-0.8,1.5c0.2,0.6,0.9,1,1.5,0.8l13.1-4.3c0.6-0.2,1-0.9,0.8-1.5
		C31.7,108.7,31.3,108.4,30.8,108.4L30.8,108.4z M149.6,108.4c-0.5,0-0.9,0.3-1,0.8c-0.2,0.6,0.1,1.3,0.8,1.5l13.1,4.3
		c0.6,0.2,1.3-0.1,1.5-0.8c0.2-0.6-0.1-1.3-0.8-1.5l-13.1-4.3C149.9,108.4,149.8,108.4,149.6,108.4L149.6,108.4z M25.8,117.7
		c-0.2,0-0.3,0-0.5,0.1l-5.3,2.4c-0.6,0.3-0.9,1-0.6,1.6c0.3,0.6,1,0.9,1.6,0.6l5.3-2.4c0.6-0.3,0.9-1,0.6-1.6
		C26.7,117.9,26.3,117.7,25.8,117.7L25.8,117.7z M154.6,117.7c-0.5,0-0.9,0.3-1.1,0.7c-0.3,0.6,0,1.3,0.6,1.6l5.3,2.4
		c0.6,0.3,1.3,0,1.6-0.6c0.3-0.6,0-1.3-0.6-1.6l-5.3-2.4C154.9,117.8,154.7,117.7,154.6,117.7L154.6,117.7z M36.1,120.3
		c-0.2,0-0.5,0-0.7,0.2l-11.9,6.9c-0.6,0.3-0.8,1.1-0.4,1.6c0.3,0.6,1.1,0.8,1.6,0.4l11.9-6.9c0.6-0.3,0.8-1.1,0.4-1.6
		C36.9,120.6,36.5,120.3,36.1,120.3L36.1,120.3z M144.3,120.3c-0.4,0-0.7,0.2-0.9,0.6c-0.3,0.6-0.1,1.3,0.4,1.6l11.9,6.9
		c0.6,0.3,1.3,0.1,1.6-0.4c0.3-0.6,0.1-1.3-0.4-1.6l-11.9-6.9C144.8,120.4,144.6,120.3,144.3,120.3L144.3,120.3z M33.2,130.4
		c-0.2,0-0.5,0.1-0.7,0.2l-4.7,3.4c-0.5,0.4-0.7,1.1-0.3,1.7c0.4,0.5,1.1,0.7,1.7,0.3l4.7-3.4c0.5-0.4,0.7-1.1,0.3-1.7
		C33.9,130.6,33.5,130.4,33.2,130.4L33.2,130.4z M147.3,130.4c-0.4,0-0.8,0.2-1,0.5c-0.4,0.5-0.3,1.3,0.3,1.7l4.7,3.4
		c0.5,0.4,1.3,0.3,1.7-0.3c0.4-0.5,0.3-1.3-0.3-1.7l-4.7-3.4C147.7,130.5,147.5,130.5,147.3,130.4L147.3,130.4z M43.8,130.9
		c-0.3,0-0.6,0.1-0.9,0.3l-10.2,9.2c-0.5,0.4-0.5,1.2-0.1,1.7c0.4,0.5,1.2,0.5,1.7,0.1l10.2-9.2c0.5-0.4,0.5-1.2,0.1-1.7
		C44.4,131,44.1,130.9,43.8,130.9z M136.7,130.9c-0.3,0-0.6,0.1-0.8,0.4c-0.4,0.5-0.4,1.2,0.1,1.7l10.2,9.2c0.5,0.4,1.2,0.4,1.7-0.1
		c0.4-0.5,0.4-1.2-0.1-1.7l-10.2-9.2C137.3,131,137,130.9,136.7,130.9L136.7,130.9z M53.5,139.6c-0.4,0-0.8,0.2-1,0.5l-8.1,11.1
		c-0.4,0.5-0.3,1.3,0.3,1.7c0.5,0.4,1.3,0.3,1.7-0.3l8.1-11.1c0.4-0.5,0.3-1.3-0.3-1.7C53.9,139.7,53.7,139.6,53.5,139.6z
		 M126.9,139.7c-0.2,0-0.5,0.1-0.7,0.2c-0.5,0.4-0.7,1.1-0.3,1.7l8.1,11.1c0.4,0.5,1.1,0.7,1.7,0.3c0.5-0.4,0.7-1.1,0.3-1.7
		l-8.1-11.1C127.7,139.8,127.3,139.7,126.9,139.7L126.9,139.7z M43,141.4c-0.3,0-0.6,0.1-0.8,0.4l-3.9,4.3c-0.4,0.5-0.4,1.2,0.1,1.7
		c0.5,0.4,1.2,0.4,1.7-0.1l3.9-4.3c0.4-0.5,0.4-1.2-0.1-1.7C43.6,141.5,43.3,141.4,43,141.4L43,141.4z M137.4,141.4
		c-0.3,0-0.6,0.1-0.9,0.3c-0.5,0.4-0.5,1.2-0.1,1.7l3.9,4.3c0.4,0.5,1.2,0.5,1.7,0.1c0.5-0.4,0.5-1.2,0.1-1.7l-3.9-4.3
		C138,141.5,137.7,141.4,137.4,141.4L137.4,141.4z M64.8,146.2c-0.5,0-0.9,0.3-1.1,0.7L58,159.4c-0.3,0.6,0,1.3,0.6,1.6
		c0.6,0.3,1.3,0,1.6-0.6l5.6-12.6c0.3-0.6,0-1.3-0.6-1.6C65.1,146.2,64.9,146.2,64.8,146.2L64.8,146.2z M115.6,146.2
		c-0.2,0-0.3,0-0.5,0.1c-0.6,0.3-0.9,1-0.6,1.6l5.6,12.6c0.3,0.6,1,0.9,1.6,0.6c0.6-0.3,0.9-1,0.6-1.6l-5.6-12.6
		C116.5,146.5,116.1,146.2,115.6,146.2L115.6,146.2z M54.9,150.1c-0.4,0-0.7,0.2-0.9,0.6l-2.9,5c-0.3,0.6-0.1,1.3,0.4,1.6
		c0.6,0.3,1.3,0.1,1.6-0.4l2.9-5c0.3-0.6,0.1-1.3-0.4-1.6C55.4,150.1,55.1,150,54.9,150.1L54.9,150.1z M125.5,150.1
		c-0.2,0-0.5,0-0.7,0.2c-0.6,0.3-0.8,1.1-0.4,1.6l2.9,5c0.3,0.6,1.1,0.8,1.6,0.4c0.6-0.3,0.8-1.1,0.4-1.6l-2.9-5
		C126.3,150.3,125.9,150.1,125.5,150.1L125.5,150.1z M77.2,150.2c-0.6,0-1.1,0.4-1.2,0.9l-2.9,13.5c-0.1,0.6,0.3,1.3,0.9,1.4
		c0.6,0.1,1.3-0.3,1.4-0.9l2.9-13.5c0.1-0.6-0.3-1.3-0.9-1.4C77.4,150.2,77.3,150.2,77.2,150.2L77.2,150.2z M103.2,150.2
		c-0.1,0-0.2,0-0.2,0c-0.6,0.1-1.1,0.8-0.9,1.4l2.8,13.5c0.1,0.6,0.8,1.1,1.4,0.9c0.6-0.1,1.1-0.8,0.9-1.4l-2.8-13.5
		C104.2,150.6,103.7,150.2,103.2,150.2L103.2,150.2z M90.2,151.6c-0.7,0-1.2,0.5-1.2,1.2v13.8c0,0.7,0.5,1.2,1.2,1.2
		c0.7,0,1.2-0.5,1.2-1.2v-13.8C91.4,152.1,90.9,151.6,90.2,151.6z M68.3,156c-0.5,0-0.9,0.3-1,0.8l-1.8,5.5
		c-0.2,0.6,0.1,1.3,0.8,1.5c0.6,0.2,1.3-0.1,1.5-0.8l1.8-5.5c0.2-0.6-0.1-1.3-0.8-1.5C68.7,156,68.5,156,68.3,156L68.3,156z
		 M112.1,156c-0.2,0-0.3,0-0.5,0.1c-0.6,0.2-1,0.9-0.8,1.5l1.8,5.5c0.2,0.6,0.9,1,1.5,0.8c0.6-0.2,1-0.9,0.8-1.5l-1.8-5.5
		C113,156.4,112.6,156.1,112.1,156L112.1,156z M82.7,159.1c-0.6,0.1-1,0.5-1.1,1.1l-0.6,5.8c-0.1,0.7,0.4,1.2,1.1,1.3
		c0.7,0.1,1.2-0.4,1.3-1.1l0.6-5.8c0.1-0.7-0.4-1.2-1.1-1.3C82.9,159.1,82.8,159.1,82.7,159.1L82.7,159.1z M97.7,159.1
		c-0.1,0-0.2,0-0.2,0c-0.7,0.1-1.1,0.7-1.1,1.3l0.6,5.8c0.1,0.7,0.7,1.1,1.3,1.1c0.7-0.1,1.1-0.7,1.1-1.3l-0.6-5.8
		C98.7,159.6,98.2,159.2,97.7,159.1L97.7,159.1z"/>
	<g opacity="0.409" enable-background="new    ">
		<polygon points="146.1,42.5 80.9,80.4 39.6,145.4 100,100.7 		"/>
	</g>
	<path fill="#FF5150" d="M99.6,100L80.9,80.4l66.3-44.6L99.6,100z"/>
	<path fill="#F1F1F1" d="M99.6,100L80.9,80.4l-47.6,64.2L99.6,100z"/>
	<path opacity="0.243" enable-background="new    " d="M33.2,144.6L99.6,100l47.6-64.2L33.2,144.6z"/>
</g>
</svg>
